<?xml version="1.0" encoding="utf-8"?>
<!-- Generator: Adobe Illustrator 24.0.0, SVG Export Plug-In . SVG Version: 6.00 Build 0)  -->
<svg version="1.1" id="Ebene_1" xmlns="http://www.w3.org/2000/svg" xmlns:xlink="http://www.w3.org/1999/xlink" x="0px" y="0px"
	 viewBox="0 0 264.4 277.82" style="enable-background:new 0 0 264.4 277.82;" xml:space="preserve">
<style type="text/css">
	.st0{fill:#FFFFFF;}
</style>
<path class="st0" d="M257.87,176.83l-23.67-16.35c1.46-6.96,2.24-14.17,2.24-21.57s-0.78-14.61-2.24-21.57l23.67-16.35
	c4.04-2.63,5.31-7.96,2.9-12.14l-20.93-36.25c-2.41-4.18-7.67-5.74-11.96-3.56l-26.02,12.34c-10.68-9.6-23.36-17.03-37.34-21.58
	l-2.32-28.67c-0.26-4.81-4.24-8.58-9.06-8.58h-41.86c-4.82,0-8.8,3.77-9.06,8.58l-2.32,28.67C85.9,44.34,73.22,51.77,62.54,61.37
	L36.52,49.04c-4.3-2.18-9.55-0.62-11.96,3.56L3.63,88.85c-2.41,4.18-1.14,9.51,2.9,12.14l23.67,16.35
	c-1.46,6.96-2.24,14.17-2.24,21.57s0.78,14.61,2.24,21.57L6.53,176.83c-4.04,2.63-5.31,7.96-2.9,12.14l20.93,36.25
	c2.41,4.18,7.67,5.74,11.96,3.56l26.02-12.34c10.68,9.6,23.36,17.03,37.34,21.58l2.32,28.67c0.26,4.81,4.24,8.58,9.06,8.58h41.86
	c4.82,0,8.8-3.77,9.06-8.58l2.32-28.67c13.98-4.55,26.66-11.98,37.34-21.58l26.02,12.34c4.3,2.18,9.55,0.62,11.96-3.56l20.93-36.25
	C263.18,184.8,261.91,179.47,257.87,176.83z M132.2,178.12c-21.65,0-39.21-17.55-39.21-39.21S110.54,99.7,132.2,99.7
	c21.65,0,39.21,17.55,39.21,39.21S153.85,178.12,132.2,178.12z"/>
</svg>
